<svg id="Layer_1" data-name="Layer 1" xmlns="http://www.w3.org/2000/svg" viewBox="0 0 1909.21 1024.55"><title>Artboard 1 copy</title><path d="M190.11,1023.47c-73.33,0-130.19-19.79-190.11-66.19L50.47,892.1C96,927.31,135.11,941,190.11,941c64,0,86.84-37.74,86.84-73.06,0-37-15.32-58.83-110.23-98.25C81.5,734.31,5,694.34,5,595.33,5,553.1,21,514.26,50,486c30.93-30.19,73.92-46.14,124.32-46.14,75.48,0,126.25,26.2,155.55,48.18L280.35,554c-19.27-14.46-53.31-31.69-106.08-31.69-64,0-86.84,37.74-86.84,73.07,0,36.8,15.41,58.59,110.91,98.25,84.87,35.25,161,75.12,161,174.39,0,42.23-16,81.06-45,109.36C283.5,1007.51,240.51,1023.47,190.11,1023.47Z"/><rect x="441.83" width="82.44" height="1022.07"/><rect x="623.19" y="511.04" width="82.44" height="511.04"/><path d="M1226.63,0V574.16a259.49,259.49,0,0,0-178.06-70.62c-143.64,0-260.5,116.86-260.5,260.5s116.86,260.5,260.5,260.5,260.5-116.86,260.5-260.5V0ZM1048.56,942.11c-98.18,0-178.06-79.88-178.06-178.06S950.38,586,1048.56,586,1226.63,665.87,1226.63,764,1146.75,942.11,1048.56,942.11Z"/><circle cx="664.41" cy="48.89" r="48.89"/><path d="M1806.13,853A178.08,178.08,0,0,1,1652,942.11c-84,0-154.54-58.48-173.2-136.85h-84c19.82,124.12,127.59,219.28,257.21,219.28,96.24,0,180.4-52.49,225.49-130.31Z"/><path d="M1652,503.55c-129.61,0-237.39,95.16-257.21,219.28h514.42C1889.39,598.71,1781.62,503.55,1652,503.55Z"/></svg>