<?xml version="1.0" encoding="utf-8"?>
<!-- Svg Vector Icons : http://www.onlinewebfonts.com/icon -->
<!DOCTYPE svg PUBLIC "-//W3C//DTD SVG 1.1//EN" "http://www.w3.org/Graphics/SVG/1.1/DTD/svg11.dtd">
<svg version="1.1" xmlns="http://www.w3.org/2000/svg" xmlns:xlink="http://www.w3.org/1999/xlink" x="0px" y="0px" viewBox="0 0 1000 1000" enable-background="new 0 0 1000 1000" xml:space="preserve">
<metadata> Svg Vector Icons : http://www.onlinewebfonts.com/icon </metadata>
<g><path d="M92.1,596.5h22.3V990H92.1V596.5z M125.6,990h20.1V596.5h-20.1V990z M189.8,990h20.9V596.5h-20.9V990z M157,990h21.4V596.5H157V990z M125.6,117.4v390.6H151c3.5-21.7,9.5-59.3,16.1-105.5c11.7-82,25.5-190.9,31.7-285.2H198H125.6L125.6,117.4z M114.4,117.4H92.1v390.6h22.3V117.4z M195.6,508.1c2.5-7.9,5.5-18,9.1-30.1c21.3-72.5,59.1-214.9,75-360.5h-4.8h-64.7c-5,77.6-15.1,163.5-24,230.2c-9.3,69.7-18.7,129.6-23.6,160.4h33.1V508.1z M245.5,369.9c-14.7,60.7-29.2,109.7-37.7,137.1c54.4-78.3,112-287,138.1-389.6H291C284,182.6,270.5,267,245.5,369.9z M197.9,519.3h-1.3H192h-31.4h-5.8h-0.6H149h-23.5h-11.3H80.1v65.8h11.9h22.2h11.3h85h11.9v-65.8h-18.7H197.9L197.9,519.3z M885.9,990h22.3V596.5h-22.3V990z M821.7,990h21.4V596.5h-21.4V990z M854.5,990h20.1V596.5h-20.1V990z M789.6,990h20.9V596.5h-20.9V990z M725.5,117.4h-4.8c15.9,145.7,53.6,287.9,75,360.6c3.5,12.1,6.6,22.2,9.1,30.1h33.1c-10.1-62.4-38.1-244-47.7-390.6L725.5,117.4L725.5,117.4z M654.4,117.4c26.2,102.6,83.7,311.3,138.1,389.6c-8.4-27.5-23-76.4-37.7-137.1c-16.2-66.6-35.3-158-45.5-252.5H654.4L654.4,117.4z M885.9,117.4v390.6h22.3V117.4H885.9z M849.2,508.1h25.3V117.4h-72.4h-0.6c5,77.1,15,162.4,23.9,228.7c2.6,20.2,5.3,39.7,7.9,57.7C839.8,449.3,845.7,486.5,849.2,508.1z M874.6,519.3h-23.5h-5.1h-0.6h-5.7h-31.4h-4.6h-1.3h-5.9h-18.6v65.8h11.8h85h11.3h22.3H920v-65.8h-34.1H874.6L874.6,519.3z M46.9,104.9h45.2H114h11.1h72.4h0.1h5.6h5.6h65.1h3.8h5.6h5.6h55.6h297.9H698h5.5h5.6h3.8H778h5.6h5.6h0.1h72.4h11.1h21.8h58.4V10H46.9V104.9z"/></g>
</svg>