<?xml version='1.0' encoding='utf-8'?>
<!DOCTYPE svg PUBLIC '-//W3C//DTD SVG 1.1//EN' 'http://www.w3.org/Graphics/SVG/1.1/DTD/svg11.dtd'>
<svg version="1.1" xmlns="http://www.w3.org/2000/svg" viewBox="0 0 512 512" xmlns:xlink="http://www.w3.org/1999/xlink" enable-background="new 0 0 512 512">
  <g>
    <g>
      <path d="m480.6,11h-449.2c-11.3,0-20.4,9.1-20.4,20.4v449.2c0,11.3 9.1,20.4 20.4,20.4h449.2c11.3,0 20.4-9.1 20.4-20.4v-449.2c5.68434e-14-11.3-9.1-20.4-20.4-20.4zm-279,40.8h108.9v49.8c0,30-24.4,54.4-54.4,54.4s-54.4-24.4-54.4-54.4v-49.8zm-149.9,0h108.9v49.8c0,30-24.4,54.4-54.5,54.4-30,0-54.4-24.4-54.4-54.4v-49.8zm408.4,408.4h-408.4v-280.4c15.4,10.8 34.2,17.1 54.4,17.1 30.3,0 57.4-14.2 74.9-36.4 17.5,22.2 44.5,36.4 74.9,36.4 30.3,0 57.4-14.2 74.9-36.4 17.5,22.2 44.5,36.4 74.9,36.4 20.2,0 39-6.3 54.4-17.1v280.4zm0-358.5c0,30-24.4,54.4-54.4,54.4-30,0-54.5-24.4-54.5-54.4v-49.9h108.9v49.9z"/>
      <polygon points="289.4,237.2 207.7,394.7 222.9,394.7 304.3,237.2   "/>
      <path d="m230.3,306c6.2-6.8 9.3-16.6 9.3-29.2 0-13-3.1-22.8-9.2-29.5-6.2-6.7-13.9-10-23.3-10-10.2,0-18,3.7-23.3,11.2-5.4,7.5-8.1,16.6-8.1,27.2 0,13.6 3,23.8 9,30.5 6,6.7 13.5,10.1 22.6,10.1 9.1-0.1 16.7-3.5 23-10.3zm-11.3-8.3c-3,3.9-6.8,5.9-11.5,5.9-4.5,0-8.3-2-11.3-5.9-3.1-3.9-4.6-10.7-4.6-20.2 0-10.5 1.5-17.8 4.5-21.7 3-3.9 6.8-5.9 11.4-5.9 4.6,0 8.4,2 11.4,5.9 3.1,3.9 4.6,10.7 4.6,20.3 0.1,10.4-1.4,17.6-4.5,21.6z"/>
      <path d="m303.8,315.7c-10.3,0-18.1,3.7-23.5,11.2-5.4,7.4-8.1,16.5-8.1,27.3 0,13.5 3,23.7 9,30.4 6,6.8 13.5,10.1 22.6,10.1 9.2,0 16.9-3.4 23.1-10.2 6.2-6.8 9.3-16.6 9.3-29.2 0-13-3.1-22.8-9.2-29.5-6-6.7-13.8-10.1-23.2-10.1zm12,60.5c-3,3.9-6.9,5.9-11.6,5.9-4.5,0-8.3-2-11.3-5.9-3.1-3.9-4.6-10.7-4.6-20.2 0-10.5 1.5-17.8 4.5-21.7 3-3.9 6.8-5.9 11.5-5.9 4.6,0 8.4,2 11.4,5.9 3.1,3.9 4.6,10.7 4.6,20.3 5.68434e-14,10.4-1.5,17.6-4.5,21.6z"/>
    </g>
  </g>
</svg>
